<svg width="453" height="453" viewBox="0 0 453 453" fill="none" xmlns="http://www.w3.org/2000/svg">
<path d="M101.59 414.719C147.824 445.249 203.661 457.733 258.494 449.799C313.327 441.864 363.335 414.064 399.018 371.68C434.7 329.296 453.57 275.281 452.042 219.898C450.515 164.515 428.697 111.622 390.733 71.2691C352.769 30.9161 301.304 5.91432 246.117 1.01394C190.93 -3.88644 135.866 11.656 91.3856 44.6883C46.9054 77.7207 16.1087 125.941 4.84655 180.189C-6.41556 234.436 2.64164 290.931 30.2974 338.939L81.2189 309.605C60.7545 274.08 54.0524 232.276 62.3861 192.134C70.7197 151.993 93.5084 116.311 126.422 91.8678C159.337 67.4248 200.083 55.9239 240.92 59.55C281.757 63.1762 319.839 81.6768 347.931 111.537C376.023 141.397 392.168 180.536 393.298 221.518C394.428 262.5 380.465 302.469 354.061 333.832C327.658 365.195 290.653 385.767 250.078 391.638C209.503 397.509 168.185 388.272 133.974 365.68L101.59 414.719Z" fill="#CC01FF"/>
</svg>
