<svg width="29" height="29" viewBox="0 0 29 29" fill="none" xmlns="http://www.w3.org/2000/svg">
<g clip-path="url(#clip0_17_80)">
<rect x="1" y="3" width="25" height="21" fill="#4363BE"/>
<path d="M24.0095 24.0104H19.8342V17.4717C19.8342 15.9125 19.8064 13.9053 17.6627 13.9053C15.4881 13.9053 15.1553 15.6042 15.1553 17.3582V24.01H10.9802V10.5638H14.9883V12.4014H15.0445C15.4456 11.7155 16.0252 11.1513 16.7217 10.7688C17.4181 10.3863 18.2052 10.1998 18.9992 10.2293C23.231 10.2293 24.0112 13.0128 24.0112 16.634L24.0095 24.0104ZM6.26904 8.72588C4.93087 8.7261 3.84587 7.64143 3.84565 6.30326C3.84543 4.96509 4.92999 3.88009 6.26816 3.87987C7.60633 3.87954 8.69133 4.96421 8.69155 6.30238C8.69167 6.945 8.43651 7.56134 7.9822 8.01583C7.5279 8.47033 6.91166 8.72574 6.26904 8.72588ZM8.3567 24.0105H4.17708V10.5638H8.35659V24.0104L8.3567 24.0105ZM26.091 0.00229503H2.07907C0.944209 -0.0104736 0.0135336 0.898628 -0.000335693 2.03349V26.1455C0.0130933 27.281 0.943659 28.1909 2.07896 28.179H26.091C27.2287 28.1931 28.1629 27.2832 28.1786 26.1455V2.03162C28.1624 0.894555 27.2281 -0.0144362 26.091 0.00042377" fill="white"/>
</g>
<defs>
<clipPath id="clip0_17_80">
<rect width="28.179" height="28.179" fill="white"/>
</clipPath>
</defs>
</svg>
